<?xml version="1.0" encoding="UTF-8" standalone="no"?>
<!-- Created with Inkscape (http://www.inkscape.org/) -->

<svg
   xmlns:dc="http://purl.org/dc/elements/1.1/"
   xmlns:cc="http://creativecommons.org/ns#"
   xmlns:rdf="http://www.w3.org/1999/02/22-rdf-syntax-ns#"
   xmlns:svg="http://www.w3.org/2000/svg"
   xmlns="http://www.w3.org/2000/svg"
   width="129mm"
   height="81mm"
   viewBox="0 0 129 81"
   version="1.1">
   <g id="steps">
    <path
       style="fill:#000000;stroke:#000000;stroke-width:0.26458332px;stroke-linecap:butt;stroke-linejoin:miter;stroke-opacity:1"
       d="m 48.15441,217.08712 v 0.009 a 9.7895803,9.7895803 0 0 0 -9.524999,9.78028 9.7895803,9.7895803 0 0 0 9.524999,9.77615 v 0.0134 h 0.264584 69.585416 v -0.0134 a 9.7895803,9.7895803 0 0 0 0.26458,0.0134 9.7895803,9.7895803 0 0 0 9.78959,-9.78959 9.7895803,9.7895803 0 0 0 -9.78959,-9.78958 9.7895803,9.7895803 0 0 0 -0.26458,0.009 v -0.009 H 48.418994 Z"
       id="path3829"
       inkscape:connector-curvature="0" />
    <path
       id="path3867"
       d="m 29.633566,247.24964 v 0.009 a 9.7895803,9.7895803 0 0 0 -9.525,9.78028 9.7895803,9.7895803 0 0 0 9.525,9.77614 v 0.0134 h 0.264583 69.585306 v -0.0134 a 9.7895803,9.7895803 0 0 0 0.26459,0.0134 9.7895803,9.7895803 0 0 0 9.789575,-9.78958 9.7895803,9.7895803 0 0 0 -9.789575,-9.78958 9.7895803,9.7895803 0 0 0 -0.26459,0.009 v -0.009 H 29.898149 Z"
       style="fill:#000000;stroke:#000000;stroke-width:0.26458332px;stroke-linecap:butt;stroke-linejoin:miter;stroke-opacity:1"
       inkscape:connector-curvature="0" />
    <path
       style="fill:#000000;stroke:#000000;stroke-width:0.26458332px;stroke-linecap:butt;stroke-linejoin:miter;stroke-opacity:1"
       d="m 10.054387,277.4122 v 0.009 a 9.7895803,9.7895803 0 0 0 -9.52500063,9.78034 9.7895803,9.7895803 0 0 0 9.52500063,9.7762 v 0.0134 h 0.264583 69.585195 v -0.0134 a 9.7895803,9.7895803 0 0 0 0.26459,0.0134 9.7895803,9.7895803 0 0 0 9.78958,-9.78964 9.7895803,9.7895803 0 0 0 -9.78958,-9.78964 9.7895803,9.7895803 0 0 0 -0.26459,0.009 v -0.009 H 10.31897 Z"
       id="path3869" />
  </g>
</svg>
