<?xml version="1.0" encoding="UTF-8"?>
<svg width="129mm" height="81mm" version="1.1" viewBox="0 0 129 81" xmlns="http://www.w3.org/2000/svg" xmlns:cc="http://creativecommons.org/ns#" xmlns:dc="http://purl.org/dc/elements/1.1/" xmlns:rdf="http://www.w3.org/1999/02/22-rdf-syntax-ns#">
   <metadata>
   <rdf:RDF>
   <cc:Work rdf:about="">
   <dc:format>image/svg+xml</dc:format>
   <dc:type rdf:resource="http://purl.org/dc/dcmitype/StillImage"/>
   <dc:title/>
   </cc:Work>
   </rdf:RDF>
   </metadata>
   <g transform="translate(0,-216)" stroke="#000" stroke-width=".26458px">
      <path id="setp-1" d="m48.154 217.09v9e-3a9.7896 9.7896 0 0 0-9.525 9.7803 9.7896 9.7896 0 0 0 9.525 9.7762v0.0134h69.85v-0.0134a9.7896 9.7896 0 0 0 0.26458 0.0134 9.7896 9.7896 0 0 0 9.7896-9.7896 9.7896 9.7896 0 0 0-9.7896-9.7896 9.7896 9.7896 0 0 0-0.26458 9e-3v-9e-3h-69.585z"/>
      <path id="setp-3" d="m29.634 247.25v9e-3a9.7896 9.7896 0 0 0-9.525 9.7803 9.7896 9.7896 0 0 0 9.525 9.7761v0.0134h69.85v-0.0134a9.7896 9.7896 0 0 0 0.26459 0.0134 9.7896 9.7896 0 0 0 9.7896-9.7896 9.7896 9.7896 0 0 0-9.7896-9.7896 9.7896 9.7896 0 0 0-0.26459 9e-3v-9e-3h-69.585z"/>
      <path id="setp-3" d="m10.054 277.41v9e-3a9.7896 9.7896 0 0 0-9.525 9.7803 9.7896 9.7896 0 0 0 9.525 9.7762v0.0134h69.85v-0.0134a9.7896 9.7896 0 0 0 0.26459 0.0134 9.7896 9.7896 0 0 0 9.7896-9.7896 9.7896 9.7896 0 0 0-9.7896-9.7896 9.7896 9.7896 0 0 0-0.26459 9e-3v-9e-3h-69.585z"/>
   </g>
</svg>
